# MagicaVoxel @ Ephtracy

# group
o 

# material
mtllib test.mtl
usemtl palette

# normals
vn -1 0 0
vn 1 0 0
vn 0 0 1
vn 0 0 -1
vn 0 -1 0
vn 0 1 0

# texcoords
vt 0.306641 0.5
vt 0.423828 0.5
vt 0.955078 0.5

# verts
v -2 0 2
v -2 0 -2
v -2 0.1 2
v -2 0.1 -2
v 2.38419e-07 0.1 -2.38419e-07
v 2.38419e-07 0.1 -0.1
v 2.38419e-07 1.5 -2.38419e-07
v 2.38419e-07 1.5 -0.1
v 2.38419e-07 1.6 -2.38419e-07
v 2.38419e-07 1.6 -0.1
v 0.1 0.1 -2.38419e-07
v 0.1 0.1 -0.1
v 0.1 1.5 -2.38419e-07
v 0.1 1.5 -0.1
v 0.1 1.6 -2.38419e-07
v 0.1 1.6 -0.1
v 2 0 2
v 2 0 -2
v 2 0.1 2
v 2 0.1 -2
v -2 0 2
v -2 0.1 2
v 2 0 2
v 2 0.1 2
v 2.38419e-07 0.1 -2.38419e-07
v 2.38419e-07 1.5 -2.38419e-07
v 2.38419e-07 1.6 -2.38419e-07
v 0.1 0.1 -2.38419e-07
v 0.1 1.5 -2.38419e-07
v 0.1 1.6 -2.38419e-07
v 2.38419e-07 0.1 -0.1
v 2.38419e-07 1.5 -0.1
v 2.38419e-07 1.6 -0.1
v 0.1 0.1 -0.1
v 0.1 1.5 -0.1
v 0.1 1.6 -0.1
v -2 0 -2
v -2 0.1 -2
v 2 0 -2
v 2 0.1 -2
v -2 0 2
v 2 0 2
v -2 0 -2
v 2 0 -2
v -2 0.1 2
v 2 0.1 2
v 2.38419e-07 0.1 -2.38419e-07
v 0.1 0.1 -2.38419e-07
v 2.38419e-07 0.1 -0.1
v 0.1 0.1 -0.1
v -2 0.1 -2
v 2 0.1 -2
v 2.38419e-07 1.6 -2.38419e-07
v 0.1 1.6 -2.38419e-07
v 2.38419e-07 1.6 -0.1
v 0.1 1.6 -0.1

# faces
f 3/1/1 2/1/1 1/1/1
f 4/1/1 2/1/1 3/1/1
f 7/3/1 6/3/1 5/3/1
f 8/3/1 6/3/1 7/3/1
f 9/2/1 8/2/1 7/2/1
f 10/2/1 8/2/1 9/2/1
f 11/3/2 12/3/2 13/3/2
f 13/3/2 12/3/2 14/3/2
f 13/2/2 14/2/2 15/2/2
f 15/2/2 14/2/2 16/2/2
f 17/1/2 18/1/2 19/1/2
f 19/1/2 18/1/2 20/1/2
f 23/1/3 22/1/3 21/1/3
f 24/1/3 22/1/3 23/1/3
f 28/3/3 26/3/3 25/3/3
f 29/2/3 27/2/3 26/2/3
f 29/3/3 26/3/3 28/3/3
f 30/2/3 27/2/3 29/2/3
f 31/3/4 32/3/4 34/3/4
f 32/2/4 33/2/4 35/2/4
f 34/3/4 32/3/4 35/3/4
f 35/2/4 33/2/4 36/2/4
f 37/1/4 38/1/4 39/1/4
f 39/1/4 38/1/4 40/1/4
f 43/1/5 42/1/5 41/1/5
f 44/1/5 42/1/5 43/1/5
f 45/1/6 46/1/6 47/1/6
f 47/1/6 46/1/6 48/1/6
f 45/1/6 47/1/6 49/1/6
f 48/1/6 46/1/6 50/1/6
f 45/1/6 49/1/6 51/1/6
f 49/1/6 50/1/6 51/1/6
f 50/1/6 46/1/6 52/1/6
f 51/1/6 50/1/6 52/1/6
f 53/2/6 54/2/6 55/2/6
f 55/2/6 54/2/6 56/2/6
